<svg width="266" height="64" viewBox="0 0 266 64" fill="none" xmlns="http://www.w3.org/2000/svg">
<path d="M20.9172 63.9128C17.0043 63.9128 13.4768 62.9537 10.3346 61.0354C7.1925 59.1172 4.73214 56.5014 2.95357 53.188C1.17499 49.8747 0.285706 46.1544 0.285706 42.0273C0.285706 37.842 1.17499 34.0926 2.95357 30.7793C4.73214 27.4659 7.1925 24.8501 10.3346 22.9319C13.4768 21.0136 17.0043 20.0545 20.9172 20.0545C24 20.0545 26.7568 20.6649 29.1875 21.8856C31.6182 23.1063 33.545 24.8211 34.9679 27.03C36.45 29.1807 37.2504 31.6222 37.369 34.3542V49.5259C37.2504 52.3161 36.45 54.7866 34.9679 56.9373C33.545 59.0881 31.6182 60.8029 29.1875 62.0817C26.7568 63.3025 24 63.9128 20.9172 63.9128ZM23.0514 53.3624C26.3122 53.3624 28.9504 52.3161 30.9661 50.2234C32.9818 48.0727 33.9897 45.3115 33.9897 41.9401C33.9897 39.7312 33.5154 37.7838 32.5668 36.0981C31.6775 34.3542 30.4029 33.0173 28.7429 32.0872C27.1422 31.099 25.245 30.6049 23.0514 30.6049C20.9172 30.6049 19.02 31.099 17.36 32.0872C15.7593 33.0173 14.4846 34.3542 13.5361 36.0981C12.6468 37.7838 12.2021 39.7312 12.2021 41.9401C12.2021 44.2071 12.6468 46.2125 13.5361 47.9564C14.4846 49.6421 15.7593 50.9791 17.36 51.9673C19.02 52.8974 20.9172 53.3624 23.0514 53.3624ZM33.3672 63.0409V51.7057L35.2347 41.4169L33.3672 31.3025V20.9264H44.9279V63.0409H33.3672Z" fill="black"/>
<path d="M55.2339 63.0409V0H66.8835V63.0409H55.2339Z" fill="black"/>
<path d="M77.2055 63.0409V20.9264H88.8552V63.0409H77.2055ZM88.8552 39.7602L84.3198 36.7956C84.8534 31.6222 86.3948 27.5531 88.9441 24.5886C91.4934 21.5659 95.1691 20.0545 99.9712 20.0545C102.046 20.0545 103.914 20.4033 105.574 21.1008C107.234 21.7402 108.746 22.8156 110.109 24.327L102.817 32.5232C102.165 31.8256 101.364 31.3025 100.416 30.9537C99.5266 30.6049 98.4891 30.4305 97.3034 30.4305C94.8134 30.4305 92.768 31.2153 91.1673 32.7847C89.6259 34.2961 88.8552 36.6213 88.8552 39.7602Z" fill="black"/>
<path d="M114.201 63.0409V20.9264H125.94V63.0409H114.201ZM120.071 14.1253C118.173 14.1253 116.602 13.515 115.357 12.2943C114.112 11.0154 113.49 9.44596 113.49 7.58583C113.49 5.78383 114.112 4.24342 115.357 2.96458C116.602 1.68574 118.173 1.04632 120.071 1.04632C122.027 1.04632 123.598 1.68574 124.784 2.96458C126.029 4.24342 126.651 5.78383 126.651 7.58583C126.651 9.44596 126.029 11.0154 124.784 12.2943C123.598 13.515 122.027 14.1253 120.071 14.1253Z" fill="black"/>
<path d="M151.022 64C148.591 64 146.19 63.6803 143.819 63.0409C141.506 62.4015 139.372 61.5295 137.416 60.4251C135.459 59.2625 133.77 57.8674 132.347 56.2398L139.283 49.3515C140.765 50.9791 142.485 52.1998 144.441 53.0136C146.398 53.8274 148.561 54.2343 150.933 54.2343C152.83 54.2343 154.253 53.9728 155.201 53.4496C156.209 52.9264 156.713 52.1417 156.713 51.0954C156.713 49.9328 156.18 49.0318 155.113 48.3924C154.105 47.753 152.771 47.2298 151.111 46.8229C149.451 46.3579 147.702 45.8638 145.864 45.3406C144.085 44.7593 142.366 44.0327 140.706 43.1608C139.046 42.2307 137.683 40.9809 136.615 39.4114C135.608 37.7838 135.104 35.6912 135.104 33.1335C135.104 30.4596 135.756 28.1344 137.06 26.158C138.424 24.1817 140.35 22.6412 142.84 21.5368C145.33 20.4323 148.265 19.8801 151.644 19.8801C155.201 19.8801 158.403 20.4905 161.249 21.7112C164.154 22.9319 166.555 24.7629 168.452 27.2044L161.426 34.0926C160.122 32.5232 158.64 31.3896 156.98 30.6921C155.379 29.9946 153.63 29.6458 151.733 29.6458C150.014 29.6458 148.68 29.9074 147.731 30.4305C146.842 30.9537 146.398 31.6803 146.398 32.6104C146.398 33.6567 146.901 34.4705 147.909 35.0518C148.977 35.6331 150.34 36.1562 152 36.6213C153.66 37.0282 155.379 37.5223 157.158 38.1035C158.996 38.6267 160.715 39.3824 162.316 40.3706C163.976 41.3588 165.31 42.6667 166.318 44.2943C167.385 45.9219 167.918 48.0145 167.918 50.5722C167.918 54.6994 166.407 57.9837 163.383 60.4251C160.359 62.8084 156.239 64 151.022 64Z" fill="black"/>
<path d="M183.777 63.9128C181.643 63.9128 179.894 63.2153 178.531 61.8202C177.167 60.4251 176.485 58.7103 176.485 56.6758C176.485 54.6412 177.167 52.9264 178.531 51.5313C179.894 50.1362 181.643 49.4387 183.777 49.4387C185.852 49.4387 187.572 50.1362 188.935 51.5313C190.299 52.9264 190.981 54.6412 190.981 56.6758C190.981 58.7103 190.299 60.4251 188.935 61.8202C187.572 63.2153 185.852 63.9128 183.777 63.9128Z" fill="black"/>
<path d="M218.662 63.9128C214.749 63.9128 211.221 62.9537 208.079 61.0354C204.937 59.1172 202.477 56.5014 200.698 53.188C198.92 49.8747 198.03 46.1544 198.03 42.0273C198.03 37.842 198.92 34.0926 200.698 30.7793C202.477 27.4659 204.937 24.8501 208.079 22.9319C211.221 21.0136 214.749 20.0545 218.662 20.0545C221.745 20.0545 224.501 20.6649 226.932 21.8856C229.363 23.1063 231.29 24.8211 232.713 27.03C234.195 29.1807 234.995 31.6222 235.114 34.3542V49.5259C234.995 52.3161 234.195 54.7866 232.713 56.9373C231.29 59.0881 229.363 60.8029 226.932 62.0817C224.501 63.3025 221.745 63.9128 218.662 63.9128ZM220.796 53.3624C224.057 53.3624 226.695 52.3161 228.711 50.2234C230.726 48.0727 231.734 45.3115 231.734 41.9401C231.734 39.7312 231.26 37.7838 230.311 36.0981C229.422 34.3542 228.148 33.0173 226.488 32.0872C224.887 31.099 222.99 30.6049 220.796 30.6049C218.662 30.6049 216.765 31.099 215.105 32.0872C213.504 33.0173 212.229 34.3542 211.281 36.0981C210.391 37.7838 209.947 39.7312 209.947 41.9401C209.947 44.2071 210.391 46.2125 211.281 47.9564C212.229 49.6421 213.504 50.9791 215.105 51.9673C216.765 52.8974 218.662 53.3624 220.796 53.3624ZM231.112 63.0409V51.7057L232.979 41.4169L231.112 31.3025V20.9264H242.673V63.0409H231.112Z" fill="#8624FF"/>
<path d="M252.979 63.0409V20.9264H264.717V63.0409H252.979ZM258.848 14.1253C256.951 14.1253 255.38 13.515 254.135 12.2943C252.89 11.0154 252.267 9.44596 252.267 7.58583C252.267 5.78383 252.89 4.24342 254.135 2.96458C255.38 1.68574 256.951 1.04632 258.848 1.04632C260.804 1.04632 262.375 1.68574 263.561 2.96458C264.806 4.24342 265.429 5.78383 265.429 7.58583C265.429 9.44596 264.806 11.0154 263.561 12.2943C262.375 13.515 260.804 14.1253 258.848 14.1253Z" fill="#8624FF"/>
</svg>
